<?xml version="1.0" encoding="utf-8"?>
<!-- Generator: Adobe Illustrator 18.1.1, SVG Export Plug-In . SVG Version: 6.00 Build 0)  -->
<svg version="1.1" id="Layer_1" xmlns="http://www.w3.org/2000/svg" xmlns:xlink="http://www.w3.org/1999/xlink" x="0px" y="0px"
	 viewBox="0 0 76.7 60.5" enable-background="new 0 0 76.7 60.5" xml:space="preserve">
<path fill="#CCCCCC" d="M75.3,0.1C74.7,0,61.2-1,45.8,5.7c-13.5,5.9-31,19-39,48.4l-4-9.3c-0.3-0.8-1.2-1.1-2-0.8
	c-0.8,0.3-1.1,1.2-0.8,2l5.5,13.1c0,0.7,0.5,1.3,1.2,1.5c0.1,0,0.2,0,0.3,0c0.7,0,1.3-0.5,1.4-1.1l9.9-8.9c0.6-0.6,0.7-1.5,0.1-2.1
	c-0.6-0.6-1.5-0.7-2.1-0.1L10,54.1c6.2-22.3,18.6-37.7,36.9-45.6C61.6,2,74.9,3.1,75,3.1c0.8,0.1,1.6-0.5,1.6-1.4
	C76.7,0.9,76.1,0.2,75.3,0.1z"/>
</svg>
