<?xml version="1.0" encoding="utf-8"?>
<!-- Generator: Adobe Illustrator 18.1.1, SVG Export Plug-In . SVG Version: 6.00 Build 0)  -->
<svg version="1.1" id="brain" xmlns="http://www.w3.org/2000/svg" xmlns:xlink="http://www.w3.org/1999/xlink" x="0px" y="0px"
	 viewBox="0 0 406 304" enable-background="new 0 0 406 304" xml:space="preserve">
<g id="brain_1_">
	<g>
		<polygon fill="#E21033" points="208,12 161,7.5 130,18 85.5,52.5 31.5,84 9,122 0,166 46.5,162.5 97,176.5 104.5,152 181,125.5 
			186,91 211.5,45.5 		"/>
		<polygon fill="#F97319" points="371,74 336,54 310,23 253,0 208,12 211.5,45.5 186,91 181,125.5 104.5,152 161.5,177 220,149 
			260.5,152 276.5,117.5 311,140 337,134 362,105.5 406,117 		"/>
		<polygon fill="#ADA62D" points="362,105.5 337,134 311,140 276.5,117.5 260.5,152 220,149 161.5,177 233,184.1 222.5,213.5 
			245,238 246,272 259,294 300,304 310,293 315,266 359,252 389,225 405,169 406,117 		"/>
		<polygon fill="#FFC33E" points="245,238 222.5,213.5 233,184.1 161.5,177 104.5,152 97,176.5 46.5,162.5 0,166 18,210 64,240 
			107,242 147,262 200,249 246,272 		"/>
	</g>
	<g>
		<g>
			<polygon fill="#D63332" points="104.5,152 86.2,105.5 46.5,162.5 			"/>
			<polygon fill="#D61B32" points="85.5,52.5 86.2,105.5 31.5,84 			"/>
			<polygon fill="#D61B32" points="109.2,110.4 86.2,105.5 113.4,73.8 			"/>
			<polygon fill="#D65024" points="181,125.5 109.2,110.4 104.5,152 			"/>
			<polygon fill="#D61B32" points="85.5,52.5 153,48 113.4,73.8 			"/>
			<polygon fill="#D61B32" points="161,7.5 153,48 130,18 			"/>
			<polygon fill="#D61B32" points="186,91 153,48 186,26.3 			"/>
			<polygon fill="#D61B32" points="161,7.5 208,12 186,26.3 			"/>
		</g>
		<g>
			<polygon fill="#CC0D2D" points="31.5,84 9,122 46.5,162.5 			"/>
			<polygon fill="#CC0D2D" points="109.2,110.4 113.4,73.8 181,125.5 			"/>
			<polygon fill="#CC0D2D" points="85.5,52.5 153,48 130,18 			"/>
			<polygon fill="#CC382D" points="181,125.5 186,91 153,48 			"/>
			<polygon fill="#D5572D" points="186,91 211.5,45.5 186,26.3 			"/>
		</g>
		<g>
			<polygon fill="#E24533" points="0,166 46.5,162.5 9,122 			"/>
			<polygon fill="#E21033" points="86.2,105.5 31.5,84 46.5,162.5 			"/>
			<polygon fill="#E21033" points="104.5,152 109.2,110.4 86.2,105.5 			"/>
			<polygon fill="#E21033" points="85.5,52.5 113.4,73.8 86.2,105.5 			"/>
			<polygon fill="#E21033" points="113.4,73.8 153,48 181,125.5 			"/>
			<polygon fill="#E21033" points="161,7.5 186,26.3 153,48 			"/>
			<polygon fill="#E24F33" points="211.5,45.5 208,12 186,26.3 			"/>
			<polygon fill="#E25933" points="46.5,162.5 97,176.5 104.5,152 			"/>
		</g>
	</g>
	<g>
		<g>
			<polygon fill="#FF812C" points="259.9,34.4 211.5,45.5 253,0 			"/>
			<polygon fill="#FF812C" points="336.3,74.5 336,54 371,74 			"/>
			<polygon fill="#FF812C" points="291.5,75.2 336.3,74.5 337,134 			"/>
			<polygon fill="#C7812C" points="260.5,152 276.5,117.5 220,149 			"/>
			<polygon fill="#FF932C" points="161.5,177 181,125.5 104.5,152 			"/>
			<polygon fill="#FF672C" points="186,91 211.5,45.5 216,99.8 			"/>
		</g>
		<g>
			<polygon fill="#EF6D14" points="208,12 253,0 211.5,45.5 			"/>
			<polygon fill="#EF6D14" points="362,105.5 336.3,74.5 337,134 			"/>
			<polygon fill="#EF6D14" points="371,74 362,105.5 406,117 			"/>
			<polygon fill="#DC6D14" points="311,140 276.5,117.5 291.5,75.2 			"/>
			<polygon fill="#EF5A14" points="181,125.5 216,99.8 186,91 			"/>
			<polygon fill="#EF7D14" points="220,149 161.5,177 181,125.5 			"/>
			<polygon fill="#EF6D14" points="216,99.8 276.5,117.5 220,149 			"/>
			<polygon fill="#EF6D14" points="259.9,34.4 276.5,117.5 211.5,45.5 			"/>
			<polygon fill="#EF6D14" points="291.5,75.2 310,23 259.9,34.4 			"/>
			<polygon fill="#EF6D14" points="336.3,74.5 336,54 291.5,75.2 			"/>
		</g>
		<g>
			<polygon fill="#F97319" points="310,23 253,0 259.9,34.4 			"/>
			<polygon fill="#F97319" points="291.5,75.2 259.9,34.4 276.5,117.5 			"/>
			<polygon fill="#F97319" points="336,54 310,23 291.5,75.2 			"/>
			<polygon fill="#F97319" points="211.5,45.5 276.5,117.5 216,99.8 			"/>
			<polygon fill="#F97319" points="220,149 216,99.8 181,125.5 			"/>
			<polygon fill="#F97319" points="371,74 336.3,74.5 362,105.5 			"/>
			<polygon fill="#C57319" points="337,134 311,140 291.5,75.2 			"/>
		</g>
	</g>
	<g>
		<polygon fill="#9B8C2C" points="260.5,152 220,149 233,184.1 		"/>
		<polygon fill="#9B982C" points="334,181.5 337,134 405,169 		"/>
		<polygon fill="#9B982C" points="311,140 334,181.5 260.5,152 		"/>
		<polygon fill="#9B982C" points="306.7,198.9 334,181.5 359,252 		"/>
		<polygon fill="#AE982C" points="306.7,198.9 233,184.1 245,238 		"/>
		<polygon fill="#9B982C" points="272.1,287.5 315,266 246,272 		"/>
		<g>
			<polygon fill="#B48028" points="406,117 362,105.5 337,134 			"/>
			<polygon fill="#8C8728" points="334,181.5 306.7,198.9 260.5,152 			"/>
			<polygon fill="#8C8728" points="405,169 334,181.5 389,225 			"/>
			<polygon fill="#8C8728" points="315,266 245,238 306.7,198.9 			"/>
			<polygon fill="#8C8728" points="259,294 246,272 272.1,287.5 			"/>
			<polygon fill="#8C8728" points="300,304 310,293 272.1,287.5 			"/>
		</g>
		<g>
			<polygon fill="#CBA62D" points="233,184.1 220,149 161.5,177 			"/>
			<polygon fill="#CBA62D" points="405,169 406,117 337,134 			"/>
			<polygon fill="#ADA62D" points="311,140 337,134 334,181.5 			"/>
			<polygon fill="#BA9A2D" points="260.5,152 276.5,117.5 311,140 			"/>
			<polygon fill="#ADA62D" points="233,184.1 260.5,152 306.7,198.9 			"/>
			<polygon fill="#ADA62D" points="359,252 389,225 334,181.5 			"/>
			<polygon fill="#ADA62D" points="315,266 359,252 306.7,198.9 			"/>
			<polygon fill="#D8A62D" points="233,184.1 245,238 222.5,213.5 			"/>
			<polygon fill="#C2A62D" points="246,272 245,238 315,266 			"/>
			<polygon fill="#ADA62D" points="310,293 315,266 272.1,287.5 			"/>
			<polygon fill="#ADA62D" points="259,294 272.1,287.5 300,304 			"/>
		</g>
	</g>
	<g>
		<polygon fill="#FF953E" points="97,176.5 104.5,152 161.5,177 		"/>
		<polygon fill="#DFC33E" points="233,184.1 222.5,213.5 161.5,177 		"/>
		<polygon fill="#FFC33E" points="245,238 222.5,213.5 200,249 		"/>
		<polygon fill="#FFB533" points="182.5,222 222.5,213.5 200,249 		"/>
		<polygon fill="#F7A726" points="161.5,177 182.5,222 222.5,213.5 		"/>
		<polygon fill="#FFC33E" points="161.5,177 147,262 182.5,222 		"/>
		<polygon fill="#FFB533" points="107,242 147,262 161.5,177 		"/>
		<polygon fill="#FFC33E" points="105.8,202.3 107,242 161.5,177 		"/>
		<polygon fill="#F7A726" points="46.5,162.5 105.8,202.3 97,176.5 		"/>
		<g>
			<polygon fill="#F7A726" points="246,272 245,238 200,249 			"/>
			<polygon fill="#F7A726" points="147,262 200,249 182.5,222 			"/>
			<polygon fill="#FFB533" points="97,176.5 105.8,202.3 161.5,177 			"/>
			<polygon fill="#F7A726" points="64,240 105.8,202.3 107,242 			"/>
		</g>
		<polygon fill="#FFC33E" points="46.5,162.5 64,240 105.8,202.3 		"/>
		<polygon fill="#FFAC33" points="18,210 46.5,162.5 64,240 		"/>
		<polygon fill="#FF853E" points="0,166 46.5,162.5 18,210 		"/>
	</g>
</g>
</svg>
