<?xml version="1.0" encoding="utf-8"?>
<!-- Generator: Adobe Illustrator 18.1.1, SVG Export Plug-In . SVG Version: 6.00 Build 0)  -->
<svg version="1.1" id="Layer_1" xmlns="http://www.w3.org/2000/svg" xmlns:xlink="http://www.w3.org/1999/xlink" x="0px" y="0px"
	 viewBox="0 0 237 201.4" enable-background="new 0 0 237 201.4" xml:space="preserve">
<linearGradient id="SVGID_1_" gradientUnits="userSpaceOnUse" x1="118.4768" y1="1.828084e-009" x2="118.4768" y2="201.3848">
	<stop  offset="0.1708" style="stop-color:#ABAD1F"/>
	<stop  offset="0.3999" style="stop-color:#FFC100"/>
	<stop  offset="0.6303" style="stop-color:#F2861D"/>
	<stop  offset="0.8479" style="stop-color:#CD2223"/>
</linearGradient>
<path fill="url(#SVGID_1_)" d="M237,191.5c-6.8-7.1-12.7-14.9-17.6-23.3c1.2-1,2-2.4,2-4.1c0-2.9-2.3-5.2-5.2-5.2
	c-0.6,0-1.1,0.1-1.6,0.3c-7.3-15.2-11.4-31.9-12.1-49.1c2.2-0.6,3.9-2.6,3.9-5c0-2.4-1.6-4.4-3.8-5c0.8-18.5,5.7-36.4,14.1-52.5
	c0.7,0.4,1.6,0.7,2.5,0.7c2.9,0,5.2-2.3,5.2-5.2c0-1.9-1-3.5-2.5-4.4c4.2-6.6,9-12.8,14.5-18.6l-0.7-0.7
	c-5.5,5.8-10.4,12.1-14.6,18.8c-0.6-0.2-1.2-0.3-1.8-0.3c-1.7,0-3.1,0.8-4.1,2L164,7.2c0.3-0.6,0.4-1.3,0.4-2.1
	c0-2.9-2.3-5.2-5.2-5.2c-2.9,0-5.2,2.3-5.2,5.2s2.3,5.2,5.2,5.2c1.8,0,3.3-0.9,4.3-2.3l51.1,32.7c-0.4,0.7-0.6,1.5-0.6,2.4
	c0,1.6,0.7,3,1.9,4c-8.6,16.2-13.5,34.2-14.3,52.9c-0.1,0-0.2,0-0.4,0c-2.7,0-4.9,2-5.1,4.7L10.3,90.6C10,88,7.8,86,5.2,86
	C2.3,86,0,88.3,0,91.2s2.3,5.2,5.2,5.2c2.7,0,5-2.1,5.2-4.8L196,105.7c0.2,2.6,2.4,4.7,5.1,4.7c0.1,0,0.2,0,0.3,0
	c0.7,17.3,4.8,34,12.2,49.3c-1.6,0.9-2.7,2.6-2.7,4.5c0,0.4,0.1,0.8,0.1,1.2l-100.3,28.6c-0.9-1.7-2.6-2.9-4.6-2.9
	c-2.9,0-5.2,2.3-5.2,5.2s2.3,5.2,5.2,5.2c2.9,0,5.2-2.3,5.2-5.2c0-0.5-0.1-0.9-0.2-1.4l100.3-28.5c0.8,1.8,2.6,3.1,4.7,3.1
	c0.8,0,1.6-0.2,2.3-0.6c4.9,8.4,10.8,16.3,17.7,23.4L237,191.5z M159.2,9.4c-2.3,0-4.2-1.9-4.2-4.2s1.9-4.2,4.2-4.2s4.2,1.9,4.2,4.2
	c0,0.5-0.1,1-0.3,1.5l0,0c-0.1,0.3-0.3,0.6-0.5,0.9C161.9,8.7,160.6,9.4,159.2,9.4z M215,43.2c0-0.7,0.2-1.3,0.4-1.8l0,0
	c0.1-0.3,0.3-0.6,0.5-0.8c0.8-0.9,1.9-1.5,3.2-1.5c0.4,0,0.8,0.1,1.2,0.2l0,0c0.3,0.1,0.6,0.2,0.9,0.4l0,0c1.2,0.7,2,2.1,2,3.6
	c0,2.3-1.9,4.2-4.2,4.2c-0.7,0-1.4-0.2-2-0.5c-0.3-0.2-0.6-0.4-0.8-0.6C215.5,45.5,215,44.4,215,43.2z M5.2,95.4
	c-2.3,0-4.2-1.9-4.2-4.2S2.9,87,5.2,87c2.1,0,3.8,1.5,4.1,3.5l0,0c0,0.2,0.1,0.5,0.1,0.7c0,0.1,0,0.2,0,0.3l0,0
	C9.2,93.7,7.4,95.4,5.2,95.4z M197.1,105.7L197.1,105.7c0-0.2-0.1-0.4-0.1-0.5c0-0.2,0-0.3,0-0.5l0,0c0.2-2.1,2-3.7,4.1-3.7
	c0.1,0,0.2,0,0.3,0l0,0c0.3,0,0.7,0.1,1,0.2l0,0c1.7,0.6,2.9,2.1,2.9,4c0,1.9-1.2,3.4-2.9,4c-0.3,0.1-0.7,0.2-1,0.2
	c-0.1,0-0.2,0-0.3,0C199.1,109.4,197.3,107.8,197.1,105.7z M110.4,196.2c0,2.3-1.9,4.2-4.2,4.2s-4.2-1.9-4.2-4.2s1.9-4.2,4.2-4.2
	c1.6,0,2.9,0.9,3.7,2.2c0.2,0.3,0.3,0.6,0.4,0.9l0,0C110.3,195.5,110.4,195.8,110.4,196.2z M212.4,166L212.4,166
	c-0.1-0.1-0.1-0.2-0.2-0.4c-0.1-0.2-0.1-0.4-0.2-0.6c0,0,0,0,0,0l0,0c-0.1-0.3-0.1-0.6-0.1-0.9c0-1.6,0.9-2.9,2.1-3.6
	c0.3-0.2,0.6-0.3,0.9-0.4c0.4-0.1,0.8-0.2,1.2-0.2c2.3,0,4.2,1.9,4.2,4.2c0,1.3-0.6,2.4-1.5,3.2c-0.3,0.2-0.5,0.4-0.8,0.5
	c-0.6,0.3-1.2,0.4-1.8,0.4C214.5,168.4,213.1,167.4,212.4,166z"/>
</svg>
